{
  "accessors": [
    {
      "name": "Audi_R009_1_0_positions",
      "componentType": 5126,
      "count": 1742,
      "min": [
        -0.8797000050544739,
        0.1347000002861023,
        -1.9500999450683594
      ],
      "max": [
        0.8859999775886536,
        1.1531000137329102,
        2.249300003051758
      ],
      "type": "VEC3",
      "bufferView": 0,
      "byteOffset": 0
    },
    {
      "name": "Audi_R009_1_0_normals",
      "componentType": 5126,
      "count": 1742,
      "min": [
        -0.9999868869781494,
        -0.9999999403953552,
        -0.9982640147209167
      ],
      "max": [
        0.9999868869781494,
        0.9999726414680481,
        0.9999994039535522
      ],
      "type": "VEC3",
      "bufferView": 1,
      "byteOffset": 0
    },
    {
      "name": "Audi_R009_1_0_texcoords",
      "componentType": 5126,
      "count": 1742,
      "min": [
        0.02070000022649765,
        0.12919999659061432
      ],
      "max": [
        0.9280999898910522,
        0.9864000082015991
      ],
      "type": "VEC2",
      "bufferView": 2,
      "byteOffset": 0
    },
    {
      "name": "Audi_R009_1_0_indices",
      "componentType": 5123,
      "count": 5370,
      "min": [
        0
      ],
      "max": [
        1741
      ],
      "type": "SCALAR",
      "bufferView": 3,
      "byteOffset": 0
    },
    {
      "name": "Audi_R009_1_1_positions",
      "componentType": 5126,
      "count": 44,
      "min": [
        -0.8733000159263611,
        0.7728999853134155,
        0.6504999995231628
      ],
      "max": [
        0.8795999884605408,
        0.8822000026702881,
        0.6953999996185303
      ],
      "type": "VEC3",
      "bufferView": 0,
      "byteOffset": 20904
    },
    {
      "name": "Audi_R009_1_1_normals",
      "componentType": 5126,
      "count": 44,
      "min": [
        -0.26000216603279114,
        0,
        -0.9656331539154053
      ],
      "max": [
        0.26000216603279114,
        0.00010000083420891315,
        -0.9656080007553101
      ],
      "type": "VEC3",
      "bufferView": 1,
      "byteOffset": 20904
    },
    {
      "name": "Audi_R009_1_1_texcoords",
      "componentType": 5126,
      "count": 44,
      "min": [
        0.8435999751091003,
        0.3070000112056732
      ],
      "max": [
        0.9280999898910522,
        0.35589998960494995
      ],
      "type": "VEC2",
      "bufferView": 2,
      "byteOffset": 13936
    },
    {
      "name": "Audi_R009_1_1_indices",
      "componentType": 5123,
      "count": 96,
      "min": [
        0
      ],
      "max": [
        43
      ],
      "type": "SCALAR",
      "bufferView": 3,
      "byteOffset": 10740
    },
    {
      "name": "Audi_R009_1_2_positions",
      "componentType": 5126,
      "count": 972,
      "min": [
        -0.8248000144958496,
        0.1347000002861023,
        -1.5745999813079834
      ],
      "max": [
        0.8310999870300293,
        1.0893000364303589,
        2.177799940109253
      ],
      "type": "VEC3",
      "bufferView": 0,
      "byteOffset": 21432
    },
    {
      "name": "Audi_R009_1_2_normals",
      "componentType": 5126,
      "count": 972,
      "min": [
        -0.9999999403953552,
        -1,
        -1
      ],
      "max": [
        0.9999999403953552,
        0.9785794019699097,
        1
      ],
      "type": "VEC3",
      "bufferView": 1,
      "byteOffset": 21432
    },
    {
      "name": "Audi_R009_1_2_texcoords",
      "componentType": 5126,
      "count": 972,
      "min": [
        0.04280000180006027,
        0.12919999659061432
      ],
      "max": [
        0.9190999865531921,
        0.9864000082015991
      ],
      "type": "VEC2",
      "bufferView": 2,
      "byteOffset": 14288
    },
    {
      "name": "Audi_R009_1_2_indices",
      "componentType": 5123,
      "count": 1632,
      "min": [
        0
      ],
      "max": [
        971
      ],
      "type": "SCALAR",
      "bufferView": 3,
      "byteOffset": 10932
    },
    {
      "name": "Audi_R009_1_3_positions",
      "componentType": 5126,
      "count": 183,
      "min": [
        -0.6711000204086304,
        0.7875999808311462,
        -1.4083000421524048
      ],
      "max": [
        0.6773999929428101,
        1.0822999477386475,
        1.2187999486923218
      ],
      "type": "VEC3",
      "bufferView": 0,
      "byteOffset": 33096
    },
    {
      "name": "Audi_R009_1_3_normals",
      "componentType": 5126,
      "count": 183,
      "min": [
        -0.85154789686203,
        0.47021031379699707,
        -0.679314911365509
      ],
      "max": [
        0.85154789686203,
        0.9801630973815918,
        0.48019590973854065
      ],
      "type": "VEC3",
      "bufferView": 1,
      "byteOffset": 33096
    },
    {
      "name": "Audi_R009_1_3_texcoords",
      "componentType": 5126,
      "count": 183,
      "min": [
        0.1039000004529953,
        0.15719999372959137
      ],
      "max": [
        0.353300005197525,
        0.6980999708175659
      ],
      "type": "VEC2",
      "bufferView": 2,
      "byteOffset": 22064
    },
    {
      "name": "Audi_R009_1_3_indices",
      "componentType": 5123,
      "count": 606,
      "min": [
        0
      ],
      "max": [
        182
      ],
      "type": "SCALAR",
      "bufferView": 3,
      "byteOffset": 14196
    },
    {
      "name": "Audi_R009_1_4_positions",
      "componentType": 5126,
      "count": 78,
      "min": [
        -0.8118000030517578,
        0.2874999940395355,
        -0.8385000228881836
      ],
      "max": [
        0.8181999921798706,
        1.003999948501587,
        -0.14079999923706055
      ],
      "type": "VEC3",
      "bufferView": 0,
      "byteOffset": 35292
    },
    {
      "name": "Audi_R009_1_4_normals",
      "componentType": 5126,
      "count": 78,
      "min": [
        -0.998835563659668,
        -0.2329944372177124,
        -0.15549775958061218
      ],
      "max": [
        0.998835563659668,
        0.6966258883476257,
        0.9017994403839111
      ],
      "type": "VEC3",
      "bufferView": 1,
      "byteOffset": 35292
    },
    {
      "name": "Audi_R009_1_4_texcoords",
      "componentType": 5126,
      "count": 78,
      "min": [
        0.3098999857902527,
        0.6651999950408936
      ],
      "max": [
        0.40400001406669617,
        0.765999972820282
      ],
      "type": "VEC2",
      "bufferView": 2,
      "byteOffset": 23528
    },
    {
      "name": "Audi_R009_1_4_indices",
      "componentType": 5123,
      "count": 222,
      "min": [
        0
      ],
      "max": [
        77
      ],
      "type": "SCALAR",
      "bufferView": 3,
      "byteOffset": 15408
    },
    {
      "name": "Audi_R009_1_5_positions",
      "componentType": 5126,
      "count": 594,
      "min": [
        -0.7348999977111816,
        0.24320000410079956,
        -1.8806999921798706
      ],
      "max": [
        0.7411999702453613,
        0.7750999927520752,
        2.2388999462127686
      ],
      "type": "VEC3",
      "bufferView": 0,
      "byteOffset": 36228
    },
    {
      "name": "Audi_R009_1_5_normals",
      "componentType": 5126,
      "count": 594,
      "min": [
        -1,
        -0.9989476799964905,
        -0.9956913590431213
      ],
      "max": [
        0.991244912147522,
        0.9971255660057068,
        0.9997095465660095
      ],
      "type": "VEC3",
      "bufferView": 1,
      "byteOffset": 36228
    },
    {
      "name": "Audi_R009_1_5_texcoords",
      "componentType": 5126,
      "count": 594,
      "min": [
        0.10400000214576721,
        0.1550000011920929
      ],
      "max": [
        0.9807999730110168,
        0.7829999923706055
      ],
      "type": "VEC2",
      "bufferView": 2,
      "byteOffset": 24152
    },
    {
      "name": "Audi_R009_1_5_indices",
      "componentType": 5123,
      "count": 2211,
      "min": [
        0
      ],
      "max": [
        593
      ],
      "type": "SCALAR",
      "bufferView": 3,
      "byteOffset": 15852
    },
    {
      "name": "Object100_1_0_positions",
      "componentType": 5126,
      "count": 241,
      "min": [
        -0.8260999917984009,
        0,
        -1.5204999446868896
      ],
      "max": [
        -0.5575000047683716,
        0.60589998960495,
        -0.9146000146865845
      ],
      "type": "VEC3",
      "bufferView": 0,
      "byteOffset": 43356
    },
    {
      "name": "Object100_1_0_normals",
      "componentType": 5126,
      "count": 241,
      "min": [
        -1,
        -0.9352065920829773,
        -0.9352065920829773
      ],
      "max": [
        0.981080174446106,
        0.9352065920829773,
        0.9352065920829773
      ],
      "type": "VEC3",
      "bufferView": 1,
      "byteOffset": 43356
    },
    {
      "name": "Object100_1_0_texcoords",
      "componentType": 5126,
      "count": 241,
      "min": [
        0.6777999997138977,
        0.7991999983787537
      ],
      "max": [
        0.868399977684021,
        0.989799976348877
      ],
      "type": "VEC2",
      "bufferView": 2,
      "byteOffset": 28904
    },
    {
      "name": "Object100_1_0_indices",
      "componentType": 5123,
      "count": 1368,
      "min": [
        0
      ],
      "max": [
        240
      ],
      "type": "SCALAR",
      "bufferView": 3,
      "byteOffset": 20276
    },
    {
      "name": "Object099_1_0_positions",
      "componentType": 5126,
      "count": 241,
      "min": [
        -0.8260999917984009,
        0,
        0.9897000193595886
      ],
      "max": [
        -0.5575000047683716,
        0.60589998960495,
        1.5957000255584717
      ],
      "type": "VEC3",
      "bufferView": 0,
      "byteOffset": 46248
    },
    {
      "name": "Object099_1_0_normals",
      "componentType": 5126,
      "count": 241,
      "min": [
        -1,
        -0.9352065920829773,
        -0.9352065920829773
      ],
      "max": [
        0.981080174446106,
        0.9352065920829773,
        0.9352065920829773
      ],
      "type": "VEC3",
      "bufferView": 1,
      "byteOffset": 46248
    },
    {
      "name": "Object099_1_0_texcoords",
      "componentType": 5126,
      "count": 241,
      "min": [
        0.6777999997138977,
        0.7991999983787537
      ],
      "max": [
        0.868399977684021,
        0.989799976348877
      ],
      "type": "VEC2",
      "bufferView": 2,
      "byteOffset": 30832
    },
    {
      "name": "Object099_1_0_indices",
      "componentType": 5123,
      "count": 1368,
      "min": [
        0
      ],
      "max": [
        240
      ],
      "type": "SCALAR",
      "bufferView": 3,
      "byteOffset": 23012
    },
    {
      "name": "Object098_1_0_positions",
      "componentType": 5126,
      "count": 241,
      "min": [
        0.5590000152587891,
        0,
        -1.5204999446868896
      ],
      "max": [
        0.8276000022888184,
        0.60589998960495,
        -0.9146000146865845
      ],
      "type": "VEC3",
      "bufferView": 0,
      "byteOffset": 49140
    },
    {
      "name": "Object098_1_0_normals",
      "componentType": 5126,
      "count": 241,
      "min": [
        -0.9810751080513,
        -0.9352065920829773,
        -0.9352065920829773
      ],
      "max": [
        1,
        0.9352065920829773,
        0.9352065920829773
      ],
      "type": "VEC3",
      "bufferView": 1,
      "byteOffset": 49140
    },
    {
      "name": "Object098_1_0_texcoords",
      "componentType": 5126,
      "count": 241,
      "min": [
        0.6777999997138977,
        0.7991999983787537
      ],
      "max": [
        0.868399977684021,
        0.989799976348877
      ],
      "type": "VEC2",
      "bufferView": 2,
      "byteOffset": 32760
    },
    {
      "name": "Object098_1_0_indices",
      "componentType": 5123,
      "count": 1368,
      "min": [
        0
      ],
      "max": [
        240
      ],
      "type": "SCALAR",
      "bufferView": 3,
      "byteOffset": 25748
    },
    {
      "name": "Object097_1_0_positions",
      "componentType": 5126,
      "count": 241,
      "min": [
        0.5590000152587891,
        0,
        0.9897000193595886
      ],
      "max": [
        0.8276000022888184,
        0.60589998960495,
        1.5957000255584717
      ],
      "type": "VEC3",
      "bufferView": 0,
      "byteOffset": 52032
    },
    {
      "name": "Object097_1_0_normals",
      "componentType": 5126,
      "count": 241,
      "min": [
        -0.9810751080513,
        -0.9352065920829773,
        -0.9352065920829773
      ],
      "max": [
        1,
        0.9352065920829773,
        0.9352065920829773
      ],
      "type": "VEC3",
      "bufferView": 1,
      "byteOffset": 52032
    },
    {
      "name": "Object097_1_0_texcoords",
      "componentType": 5126,
      "count": 241,
      "min": [
        0.6777999997138977,
        0.7991999983787537
      ],
      "max": [
        0.868399977684021,
        0.989799976348877
      ],
      "type": "VEC2",
      "bufferView": 2,
      "byteOffset": 34688
    },
    {
      "name": "Object097_1_0_indices",
      "componentType": 5123,
      "count": 1368,
      "min": [
        0
      ],
      "max": [
        240
      ],
      "type": "SCALAR",
      "bufferView": 3,
      "byteOffset": 28484
    }
  ],
  "asset": {
    "generator": "obj2gltf",
    "version": "2.0"
  },
  "buffers": [
    {
      "name": "CAR1130-02",
      "byteLength": 259808,
      "uri": "data:application/octet-stream;base64,"
    }
  ],
  "bufferViews": [
    {
      "name": "bufferView_0",
      "buffer": 0,
      "byteLength": 54924,
      "byteOffset": 0,
      "byteStride": 12,
      "target": 34962
    },
    {
      "name": "bufferView_1",
      "buffer": 0,
      "byteLength": 54924,
      "byteOffset": 54924,
      "byteStride": 12,
      "target": 34962
    },
    {
      "name": "bufferView_2",
      "buffer": 0,
      "byteLength": 36616,
      "byteOffset": 109848,
      "byteStride": 8,
      "target": 34962
    },
    {
      "name": "bufferView_3",
      "buffer": 0,
      "byteLength": 31220,
      "byteOffset": 146464,
      "target": 34963
    },
    {
      "buffer": 0,
      "byteOffset": 177684,
      "byteLength": 82123
    }
  ],
  "images": [
    {
      "name": "Audi_R8",
      "mimeType": "image/jpeg",
      "bufferView": 4
    }
  ],
  "materials": [
    {
      "name": "Material__78",
      "pbrMetallicRoughness": {
        "baseColorFactor": [
          0.8235,
          0.8235,
          0.8235,
          1
        ],
        "metallicFactor": 0,
        "roughnessFactor": 0.97
      },
      "emissiveFactor": [
        0,
        0,
        0
      ],
      "alphaMode": "OPAQUE",
      "doubleSided": false
    },
    {
      "name": "Material__4562",
      "pbrMetallicRoughness": {
        "baseColorFactor": [
          1,
          1,
          1,
          1
        ],
        "metallicFactor": 0,
        "roughnessFactor": 0.99
      },
      "emissiveFactor": [
        1,
        1,
        1
      ],
      "alphaMode": "OPAQUE",
      "doubleSided": false
    },
    {
      "name": "Material__94",
      "pbrMetallicRoughness": {
        "baseColorFactor": [
          0.1529,
          0.1529,
          0.1529,
          1
        ],
        "metallicFactor": 0,
        "roughnessFactor": 0.99
      },
      "emissiveFactor": [
        0,
        0,
        0
      ],
      "alphaMode": "OPAQUE",
      "doubleSided": false
    },
    {
      "name": "Material__91",
      "pbrMetallicRoughness": {
        "baseColorFactor": [
          0.1961,
          0.1961,
          0.1961,
          1
        ],
        "metallicFactor": 0,
        "roughnessFactor": 0.97
      },
      "emissiveFactor": [
        0,
        0,
        0
      ],
      "alphaMode": "OPAQUE",
      "doubleSided": false
    },
    {
      "name": "Material__92",
      "pbrMetallicRoughness": {
        "baseColorFactor": [
          0.1529,
          0.1529,
          0.1529,
          1
        ],
        "metallicFactor": 0,
        "roughnessFactor": 0.99
      },
      "emissiveFactor": [
        0,
        0,
        0
      ],
      "alphaMode": "OPAQUE",
      "doubleSided": false
    },
    {
      "name": "Material__93",
      "pbrMetallicRoughness": {
        "baseColorTexture": {
          "index": 0
        },
        "baseColorFactor": [
          1,
          1,
          1,
          1
        ],
        "metallicFactor": 0,
        "roughnessFactor": 0.99
      },
      "emissiveFactor": [
        0,
        0,
        0
      ],
      "alphaMode": "OPAQUE",
      "doubleSided": false
    }
  ],
  "meshes": [
    {
      "name": "Audi_R009_1",
      "primitives": [
        {
          "attributes": {
            "POSITION": 0,
            "NORMAL": 1,
            "TEXCOORD_0": 2
          },
          "indices": 3,
          "material": 0,
          "mode": 4
        },
        {
          "attributes": {
            "POSITION": 4,
            "NORMAL": 5,
            "TEXCOORD_0": 6
          },
          "indices": 7,
          "material": 1,
          "mode": 4
        },
        {
          "attributes": {
            "POSITION": 8,
            "NORMAL": 9,
            "TEXCOORD_0": 10
          },
          "indices": 11,
          "material": 2,
          "mode": 4
        },
        {
          "attributes": {
            "POSITION": 12,
            "NORMAL": 13,
            "TEXCOORD_0": 14
          },
          "indices": 15,
          "material": 3,
          "mode": 4
        },
        {
          "attributes": {
            "POSITION": 16,
            "NORMAL": 17,
            "TEXCOORD_0": 18
          },
          "indices": 19,
          "material": 4,
          "mode": 4
        },
        {
          "attributes": {
            "POSITION": 20,
            "NORMAL": 21,
            "TEXCOORD_0": 22
          },
          "indices": 23,
          "material": 5,
          "mode": 4
        }
      ]
    },
    {
      "name": "Object100_1",
      "primitives": [
        {
          "attributes": {
            "POSITION": 24,
            "NORMAL": 25,
            "TEXCOORD_0": 26
          },
          "indices": 27,
          "material": 5,
          "mode": 4
        }
      ]
    },
    {
      "name": "Object099_1",
      "primitives": [
        {
          "attributes": {
            "POSITION": 28,
            "NORMAL": 29,
            "TEXCOORD_0": 30
          },
          "indices": 31,
          "material": 5,
          "mode": 4
        }
      ]
    },
    {
      "name": "Object098_1",
      "primitives": [
        {
          "attributes": {
            "POSITION": 32,
            "NORMAL": 33,
            "TEXCOORD_0": 34
          },
          "indices": 35,
          "material": 5,
          "mode": 4
        }
      ]
    },
    {
      "name": "Object097_1",
      "primitives": [
        {
          "attributes": {
            "POSITION": 36,
            "NORMAL": 37,
            "TEXCOORD_0": 38
          },
          "indices": 39,
          "material": 5,
          "mode": 4
        }
      ]
    }
  ],
  "nodes": [
    {
      "name": "Audi_R009",
      "mesh": 0
    },
    {
      "name": "Object100",
      "mesh": 1
    },
    {
      "name": "Object099",
      "mesh": 2
    },
    {
      "name": "Object098",
      "mesh": 3
    },
    {
      "name": "Object097",
      "mesh": 4
    }
  ],
  "samplers": [
    {
      "magFilter": 9729,
      "minFilter": 9986,
      "wrapS": 10497,
      "wrapT": 10497
    }
  ],
  "scene": 0,
  "scenes": [
    {
      "nodes": [
        0,
        1,
        2,
        3,
        4
      ]
    }
  ],
  "textures": [
    {
      "name": "Audi_R8",
      "sampler": 0,
      "source": 0
    }
  ]
}
